<svg width="404" height="108" viewBox="0 0 404 108" fill="none" xmlns="http://www.w3.org/2000/svg">
<path d="M15.936 107.464C14.88 107.464 14.016 107.176 13.44 106.504C12.864 105.832 12.576 104.872 12.576 103.72V58.408C12.576 53.416 13.632 49 15.744 44.968C17.856 40.936 20.736 37.768 24.288 35.464C27.936 33.16 31.968 32.008 36.48 32.008C41.088 32.008 45.216 33.256 48.864 35.56C52.416 37.864 55.296 41.032 57.408 45.064C59.52 49.096 60.576 53.704 60.576 58.792C60.576 63.88 59.52 68.392 57.504 72.424C55.488 76.456 52.704 79.72 49.152 82.024C45.696 84.328 41.664 85.48 37.248 85.48C33.408 85.48 29.856 84.616 26.784 82.792C23.616 80.968 21.12 78.568 19.2 75.496V103.72C19.2 104.872 18.912 105.832 18.24 106.504C17.664 107.176 16.896 107.464 15.936 107.464ZM36.48 78.76C39.84 78.76 42.816 77.896 45.408 76.168C48.096 74.44 50.208 72.136 51.744 69.064C53.28 65.992 54.048 62.632 54.048 58.792C54.048 54.952 53.28 51.592 51.744 48.52C50.208 45.544 48.096 43.144 45.408 41.416C42.816 39.688 39.84 38.728 36.48 38.728C33.216 38.728 30.24 39.688 27.552 41.416C24.96 43.144 22.848 45.544 21.312 48.52C19.872 51.592 19.104 54.952 19.104 58.792C19.104 62.632 19.872 65.992 21.312 69.064C22.848 72.136 24.96 74.44 27.552 76.168C30.24 77.896 33.216 78.76 36.48 78.76ZM90.0923 63.592C89.0363 63.592 88.1723 63.304 87.5963 62.536C87.0203 61.864 86.7323 61 86.7323 59.848V13.768C86.7323 12.616 87.0203 11.752 87.5963 11.08C88.1723 10.408 89.0363 10.024 90.0923 10.024C91.0523 10.024 91.8203 10.408 92.3963 11.08C93.0683 11.752 93.3563 12.616 93.3563 13.768V59.848C93.3563 61 93.0683 61.864 92.3963 62.536C91.8203 63.304 91.0523 63.592 90.0923 63.592ZM127.244 85C126.188 85 125.42 84.712 124.748 83.944C124.172 83.272 123.884 82.408 123.884 81.352V56.392C123.884 52.456 123.116 49.192 121.772 46.6C120.428 44.104 118.604 42.184 116.3 40.84C113.9 39.592 111.308 38.92 108.332 38.92C105.548 38.92 102.956 39.592 100.748 40.744C98.4443 41.992 96.6203 43.624 95.3723 45.736C94.0283 47.848 93.3563 50.248 93.3563 52.936H88.5563C88.7483 48.904 89.7083 45.352 91.5323 42.184C93.3563 39.016 95.8523 36.52 98.8282 34.696C101.9 32.872 105.356 31.912 109.1 31.912C113.132 31.912 116.78 32.872 120.044 34.792C123.308 36.712 125.804 39.4 127.724 43.048C129.548 46.696 130.508 51.208 130.508 56.392V81.352C130.508 82.408 130.22 83.272 129.548 83.944C128.876 84.712 128.108 85 127.244 85ZM90.0923 85C89.0363 85 88.1723 84.712 87.5963 84.04C87.0203 83.368 86.7323 82.504 86.7323 81.352V36.232C86.7323 35.08 87.0203 34.216 87.5963 33.544C88.1723 32.872 89.0363 32.488 90.0923 32.488C91.0523 32.488 91.8203 32.872 92.3963 33.544C93.0683 34.216 93.3563 35.08 93.3563 36.232V81.352C93.3563 82.504 93.0683 83.368 92.3963 84.04C91.8203 84.712 91.0523 85 90.0923 85ZM248.93 85.48C245.474 85.48 242.114 84.904 238.754 83.56C235.49 82.312 232.706 80.392 230.69 77.8C230.018 77.032 229.826 76.168 229.922 75.208C230.018 74.248 230.402 73.48 231.17 72.712C232.034 72.136 232.802 71.848 233.666 71.944C234.53 72.136 235.298 72.52 235.874 73.192C237.218 75.016 239.042 76.36 241.346 77.32C243.65 78.28 246.146 78.76 248.93 78.76C253.154 78.76 256.226 77.992 258.146 76.36C260.066 74.728 261.026 72.712 261.122 70.408C261.122 68.104 260.066 66.28 258.146 64.744C256.226 63.208 252.962 62.056 248.45 61.192C242.69 60.232 238.37 58.408 235.682 55.816C232.994 53.32 231.65 50.248 231.65 46.696C231.65 43.432 232.418 40.744 233.954 38.536C235.49 36.424 237.602 34.792 240.194 33.64C242.786 32.584 245.666 32.008 248.738 32.008C252.578 32.008 255.938 32.776 258.722 34.216C261.506 35.752 263.81 37.672 265.538 40.168C266.114 41.032 266.306 41.896 266.21 42.76C266.114 43.72 265.634 44.392 264.77 44.968C264.098 45.448 263.33 45.64 262.466 45.448C261.506 45.256 260.738 44.776 260.162 44.008C258.722 42.184 256.994 40.84 255.17 39.976C253.25 39.112 251.042 38.632 248.546 38.632C245.378 38.632 242.882 39.4 240.962 40.84C239.042 42.28 238.082 44.104 238.082 46.216C238.082 47.752 238.466 49 239.234 50.056C239.906 51.208 241.154 52.168 242.882 52.936C244.706 53.8 247.106 54.472 250.274 55.048C254.594 55.816 258.05 56.968 260.546 58.504C263.042 60.04 264.866 61.768 265.922 63.784C266.978 65.8 267.458 68.008 267.458 70.312C267.458 73.384 266.69 75.976 265.154 78.28C263.522 80.584 261.314 82.312 258.53 83.56C255.746 84.904 252.578 85.48 248.93 85.48ZM296.233 52.648C296.425 48.712 297.385 45.16 299.113 41.992C300.745 38.92 302.953 36.424 305.737 34.6C308.425 32.872 311.497 31.912 314.857 31.912C317.449 31.912 319.561 32.392 321.001 33.16C322.441 34.024 322.921 35.272 322.633 36.808C322.345 37.768 321.961 38.44 321.481 38.728C320.905 39.112 320.233 39.208 319.465 39.112C318.697 39.112 317.833 39.016 316.873 38.92C313.609 38.632 310.729 39.016 308.233 40.072C305.737 41.128 303.721 42.76 302.281 44.872C300.841 47.08 300.073 49.672 300.073 52.648H296.233ZM296.809 85C295.753 85 294.985 84.712 294.409 84.04C293.833 83.464 293.545 82.504 293.545 81.352V36.136C293.545 34.984 293.833 34.12 294.409 33.448C294.985 32.872 295.753 32.488 296.809 32.488C297.865 32.488 298.633 32.872 299.209 33.448C299.785 34.12 300.073 34.984 300.073 36.136V81.352C300.073 82.504 299.785 83.464 299.209 84.04C298.633 84.712 297.865 85 296.809 85ZM365.187 85.48C360.675 85.48 356.739 84.328 353.187 82.024C349.731 79.72 346.947 76.456 344.835 72.424C342.819 68.392 341.859 63.88 341.859 58.792C341.859 53.704 342.819 49.096 344.931 45.064C347.043 41.032 349.923 37.864 353.571 35.56C357.219 33.256 361.251 32.008 365.859 32.008C370.371 32.008 374.499 33.256 378.051 35.56C381.699 37.864 384.483 41.032 386.595 45.064C388.707 49.096 389.763 53.704 389.859 58.792L387.171 61.096C387.171 65.704 386.211 69.928 384.291 73.576C382.371 77.224 379.683 80.2 376.419 82.312C373.059 84.424 369.315 85.48 365.187 85.48ZM365.859 78.76C369.123 78.76 372.195 77.896 374.787 76.168C377.379 74.44 379.491 72.136 381.027 69.064C382.563 65.992 383.331 62.632 383.331 58.792C383.331 54.952 382.563 51.592 381.027 48.52C379.491 45.544 377.379 43.144 374.787 41.416C372.195 39.688 369.123 38.728 365.859 38.728C362.499 38.728 359.619 39.688 356.931 41.416C354.243 43.144 352.227 45.544 350.595 48.52C349.059 51.592 348.291 54.952 348.291 58.792C348.291 62.632 349.059 65.992 350.595 69.064C352.227 72.136 354.243 74.44 356.931 76.168C359.619 77.896 362.499 78.76 365.859 78.76ZM386.499 85C385.539 85 384.675 84.712 384.099 84.04C383.427 83.368 383.139 82.504 383.139 81.352V64.936L384.771 57.352L389.859 58.792V81.352C389.859 82.504 389.571 83.368 388.899 84.04C388.227 84.712 387.459 85 386.499 85Z" fill="white"/>
<path d="M179.515 76.1357C176.908 82.2527 176.908 88.3696 179.515 94.4866C182.123 88.3696 182.123 82.2527 179.515 76.1357Z" fill="white"/>
<path d="M179.515 22.3289C176.908 28.4458 176.908 34.5627 179.515 40.6797C182.123 34.5627 182.123 28.4458 179.515 22.3289Z" fill="white"/>
<path d="M187.504 73.7606C188.002 80.5045 190.758 85.802 195.773 89.6529C195.274 82.9089 192.518 77.6115 187.504 73.7606Z" fill="white"/>
<path d="M163.258 27.1627C163.756 33.9066 166.512 39.2041 171.527 43.055C171.028 36.311 168.272 31.0136 163.258 27.1627Z" fill="white"/>
<path d="M193.351 67.272C196.822 72.836 201.596 75.8945 207.674 76.4476C204.203 70.8836 199.429 67.8251 193.351 67.272Z" fill="white"/>
<path d="M151.356 40.3685C154.827 45.9324 159.601 48.9909 165.679 49.5439C162.208 43.98 157.434 40.9215 151.356 40.3685Z" fill="white"/>
<path d="M195.492 58.4083C201.005 61.3014 206.518 61.3014 212.03 58.4083C206.518 55.5153 201.005 55.5153 195.492 58.4083Z" fill="white"/>
<path d="M147 58.4081C152.513 61.3011 158.026 61.3011 163.538 58.4081C158.026 55.515 152.513 55.515 147 58.4081Z" fill="white"/>
<path d="M193.351 49.5442C199.429 48.9912 204.204 45.9327 207.674 40.3688C201.596 40.9218 196.822 43.9803 193.351 49.5442Z" fill="white"/>
<path d="M151.356 76.4476C157.434 75.8945 162.208 72.836 165.679 67.2721C159.601 67.8251 154.827 70.8836 151.356 76.4476Z" fill="white"/>
<path d="M187.504 43.0572C192.518 39.2063 195.274 33.9088 195.773 27.1649C190.758 31.0158 188.002 36.3132 187.504 43.0572Z" fill="white"/>
<path d="M163.258 89.6548C168.272 85.8039 171.029 80.5065 171.527 73.7625C166.513 77.6134 163.756 82.9109 163.258 89.6548Z" fill="white"/>
</svg>
