<svg width="254" height="130" viewBox="0 0 254 130" fill="none" xmlns="http://www.w3.org/2000/svg">
<path d="M54.7676 36C55.0976 34.35 55.4276 32.7 55.7676 31C60.3876 31 65.0076 31 69.7676 31C69.8357 39.7893 69.8906 48.5783 69.923 57.3677C69.9386 61.4502 69.9597 65.5324 69.9939 69.6148C70.0268 73.5635 70.0445 77.5121 70.0522 81.4609C70.0577 82.9582 70.0685 84.4555 70.0848 85.9528C70.2308 99.8911 69.1026 112.316 59.1426 122.75C51.8532 128.264 43.651 129.515 34.7676 129C34.7676 124.71 34.7676 120.42 34.7676 116C36.4589 115.753 38.1501 115.505 39.8926 115.25C44.712 114.339 48.1628 113.515 51.7676 110C54.4453 104.634 55.2302 98.9112 55.7676 93C55.0232 93.3984 55.0232 93.3984 54.2637 93.8047C44.5796 98.8397 35.3661 100.693 24.6426 97.875C14.5274 94.4125 8.248 88.175 2.66995 79.2422C-0.880945 71.8762 -0.466121 61.0325 1.45902 53.1797C2.39008 50.9436 3.44134 49.0246 4.76761 47C5.19171 46.3065 5.61581 45.613 6.05277 44.8985C11.5594 36.7075 19.0209 32.4429 28.5879 30.4102C38.4548 29.1374 46.3157 30.8297 54.7676 36ZM17.0176 53.125C13.529 58.3579 14.2621 64.9835 14.7676 71C16.4232 76.9507 19.7388 80.5805 24.7676 84C30.1992 86.5348 36.1495 87.1006 41.9121 85.3477C48.3596 82.4753 52.5694 78.05 55.1426 71.5C56.533 63.7136 55.7771 57.6971 51.5137 51.043C47.9903 46.4827 44.3973 44.2182 38.7676 43C28.9908 41.9525 23.0625 45.7848 17.0176 53.125Z" fill="black"/>
<path d="M239.408 36.2383C246.829 41.779 250.887 48.7308 253.518 57.5C254.69 69.225 252.313 78.75 244.768 88C237.871 95.4261 229.08 98.8774 219.08 99.25C208.838 99.0981 200.545 95.2497 193.014 88.4063C186.897 81.9063 184.172 73.6738 183.674 64.8594C184.009 54.6495 187.581 46.2806 194.701 39.0313C207.699 27.7743 225.239 27.1518 239.408 36.2383ZM202.768 50C197.984 56.3366 197.846 63.3263 198.768 71C200.337 77.0309 203.803 80.3122 208.768 83.8711C213.41 86.4915 218.562 86.6079 223.768 86C229.584 84.1825 233.393 81.1107 236.768 76C239.866 69.7183 240.563 63.7978 238.768 57C236.001 50.8189 232.172 46.48 225.893 43.75C217.314 41.6911 208.998 43.5969 202.768 50Z" fill="black"/>
<path d="M141.33 29.6875C151.344 29.8793 160.813 33.8493 167.768 41C175.614 50.7067 176.514 59.9436 175.768 72C174.495 80.0765 169.817 86.5515 163.662 91.793C155.584 97.5833 146.672 100.126 136.768 99C126.03 96.8949 118.192 91.838 111.768 83C106.691 74.6614 105.559 65.9676 107.229 56.3438C109.594 47.3276 115.101 40.2515 122.768 35C128.883 31.6534 134.409 30.2946 141.33 29.6875ZM125.33 50.3125C121.219 55.6536 120.185 61.3548 120.768 68C122.198 74.07 125.107 78.8545 129.768 83C135.027 86.0762 139.808 86.782 145.768 86C151.93 83.946 156.694 81.1986 160.08 75.5625C162.919 69.3627 162.955 62.0192 161.037 55.5273C158.417 49.8056 154.665 46.6681 148.893 44.25C140.041 41.2553 131.675 43.4414 125.33 50.3125Z" fill="black"/>
<path d="M81.7676 0C86.3876 0 91.0076 0 95.7676 0C95.7676 32.01 95.7676 64.02 95.7676 97C91.1476 97 86.5276 97 81.7676 97C81.7676 64.99 81.7676 32.98 81.7676 0Z" fill="black"/>
</svg>
